<svg viewBox="0 0 100 100" xmlns="http://www.w3.org/2000/svg" fill="#888">
    <rect x="16" y="44" width="64" height="12" fill="#ccc" transform="rotate(10 50 50)" />
    <rect x="15" y="15" width="12" height="70" rx="2" ry="2" />
    <rect x="50" y="26" width="20" height="4" transform="rotate(45 60 28)" rx="1" ry="1" />
    <rect x="50" y="26" width="20" height="4" rx="1" ry="1" />
    <rect x="58" y="18" width="4" height="20" rx="1" ry="1" />
    <rect x="50" y="26" width="20" height="4" transform="rotate(-45 60 28)" rx="1" ry="1" />
    <rect x="73" y="15" width="12" height="70" rx="2" ry="2" />
    <rect x="29" y="70" width="20" height="4" transform="rotate(45 39 72)" rx="1" ry="1" />
    <rect x="29" y="70" width="20" height="4" rx="1" ry="1" />
    <rect x="37" y="62" width="4" height="20" rx="1" ry="1" />
    <rect x="29" y="70" width="20" height="4" transform="rotate(-45 39 72)" rx="1" ry="1" />
</svg>